<?xml version="1.0" encoding="UTF-8" standalone="no"?>
<svg
   viewBox="0 0 337 337"
   width="337"
   height="337"
   fill="none"
   version="1.1"
   id="svg11"
   sodipodi:docname="spinner.svg"
   inkscape:version="1.4 (e7c3feb1, 2024-10-09)"
   xmlns:inkscape="http://www.inkscape.org/namespaces/inkscape"
   xmlns:sodipodi="http://sodipodi.sourceforge.net/DTD/sodipodi-0.dtd"
   xmlns="http://www.w3.org/2000/svg"
   xmlns:svg="http://www.w3.org/2000/svg">
  <sodipodi:namedview
     id="namedview11"
     pagecolor="#ffffff"
     bordercolor="#000000"
     borderopacity="0.25"
     inkscape:showpageshadow="2"
     inkscape:pageopacity="0.0"
     inkscape:pagecheckerboard="0"
     inkscape:deskcolor="#d1d1d1"
     inkscape:zoom="0.74518599"
     inkscape:cx="339.51255"
     inkscape:cy="147.61415"
     inkscape:window-width="1728"
     inkscape:window-height="1051"
     inkscape:window-x="0"
     inkscape:window-y="38"
     inkscape:window-maximized="1"
     inkscape:current-layer="svg11" />
  <defs
     id="defs9">
    <linearGradient
       id="gOuter"
       x1="70"
       y1="40"
       x2="220"
       y2="310"
       gradientUnits="userSpaceOnUse">
      <stop
         offset="0"
         stop-color="#222428"
         id="stop1" />
      <stop
         offset="0.55"
         stop-color="#111318"
         id="stop2" />
      <stop
         offset="1"
         stop-color="#1A1C20"
         id="stop3" />
    </linearGradient>
    <linearGradient
       id="gFlame"
       x1="105"
       y1="55"
       x2="175"
       y2="290"
       gradientUnits="userSpaceOnUse">
      <stop
         offset="0"
         stop-color="#FF6A00"
         id="stop4" />
      <stop
         offset="0.55"
         stop-color="#FF8D00"
         id="stop5" />
      <stop
         offset="1"
         stop-color="#FFB000"
         id="stop6" />
    </linearGradient>
    <linearGradient
       id="gInner"
       x1="95"
       y1="120"
       x2="150"
       y2="295"
       gradientUnits="userSpaceOnUse">
      <stop
         offset="0"
         stop-color="#FFF04B"
         id="stop7" />
      <stop
         offset="0.55"
         stop-color="#FFE126"
         id="stop8" />
      <stop
         offset="1"
         stop-color="#FFD400"
         id="stop9" />
    </linearGradient>
  </defs>
  <g
     id="g11"
     transform="translate(26.5,-3.5)">
    <path
       fill-rule="evenodd"
       d="m 141,19 -8,11 -18,31 -63,95 -8,16 -7,21 -2,10 -1,21 1,1 v 10 l 2,10 5,15 11,20 14,16 17,13 21,10 11,2 4,2 28,2 1,-1 h 9 l 15,-3 16,-6 20,-12 16,-15 12,-17 9,-21 4,-19 v -20 l -2,-7 v -6 L 241,175 228,148 213,123 144,19 Z m 71,160 8,12 4,11 2,10 v 19 l -2,10 -6,15 -6,9 -14,13 -4,2 h -7 l -4,-4 v -7 l 13,-14 7,-10 6,-13 3,-10 v -6 l 1,-1 v -23 l -2,-8 z"
       fill="url(#gOuter)"
       id="path9"
       style="fill:url(#gOuter)" />
    <path
       d="m 133,59 h -1 l 1,4 v 19 l -2,10 -5,14 -6,11 -8,11 -29,29 -13,17 -8,15 -4,12 -1,12 -1,1 v 13 l 4,18 7,15 8,11 19,17 21,11 9,3 h 3 v -5 l 2,-7 6,-9 8,-8 21,-16 12,-12 7,-10 9,-21 2,-18 1,-1 v -11 l -1,-1 -1,-13 -3,-10 -7,-14 v 7 l -2,10 -7,15 -7,8 -11,7 -5,-1 4,-5 6,-12 6,-18 v -4 l 2,-5 v -7 l 1,-1 V 120 L 164,96 157,83 147,70 Z"
       fill="url(#gFlame)"
       id="path10"
       style="fill:url(#gFlame)" />
    <path
       d="m 130,160 -16,11 -17,19 -11,20 -5,18 v 22 l 2,9 5,13 7,11 9,10 9,5 14,4 v -7 l -1,-1 1,-8 2,-6 10,-18 4,-16 -2,-14 -4,-9 -6,-9 -6,-18 v -19 z"
       fill="url(#gInner)"
       id="path11"
       style="fill:url(#gInner)" />
  </g>
</svg>
