<svg xmlns="http://www.w3.org/2000/svg"
  viewBox="0 0 55.583 51.667"
  fill="none"
>
  <path fill="#2F683E" fill-rule="evenodd" d="M 33.49 50.479 L 30.948 50.458 L 29.406 50.021 L 28.094 47.99 L 26.427 43.698 L 24.151 39.328 L 24.083 37.073 L 24.62 34.786 L 24.635 33.188 L 24.146 32.062 L 22.104 29.333 L 21.854 28.583 L 21.891 26.411 L 21.63 25.984 L 17.073 24.646 L 10.828 25.276 L 8.292 25.146 L 5.354 23.661 L 3.083 21.656 L 2.214 20.375 L 1.365 17.281 L 1.521 13.938 L 2.135 11.719 L 3.901 9.703 L 6.865 7.281 L 7.573 5.724 L 8.5 4.594 L 10.76 2.865 L 12.073 2.583 L 13.807 2.604 L 18.312 1.25 L 21.557 1.172 L 23.323 1.812 L 23.849 2.677 L 24.021 3.917 L 24.901 5.109 L 29 6.896 L 29.682 6.859 L 31.219 5.568 L 32.406 5.146 L 36.505 6.276 L 40.615 6.448 L 41.505 7.37 L 42.297 9.807 L 43.568 11.599 L 45.854 16.052 L 47.333 17.958 L 49.068 19.281 L 51.073 19.896 L 53.052 20.094 L 54.115 20.75 L 54.286 21.885 L 53.021 24.604 L 51.318 26.641 L 48.062 29.484 L 47.01 30.896 L 46.995 32.615 L 47.917 36.073 L 47.828 37.516 L 47.385 38.562 L 46.547 39.312 L 43.641 40.891 L 43.172 41.422 L 42.073 45.156 L 40.594 46.688 L 36.375 49.599 Z"/>
</svg>
