<svg xmlns="http://www.w3.org/2000/svg"
  viewBox="0 0 47.583 54.5"
  fill="none"
>
  <path fill="#2F683E" fill-rule="evenodd" d="M 2.823 11.302 L 4.37 9.88 L 6.458 8.693 L 8.885 5.229 L 10.911 4.38 L 12.214 3.302 L 15.224 2.672 L 16.458 2.141 L 20.823 2.385 L 22.141 1.391 L 23.188 1.052 L 25.156 1.333 L 28.188 2.672 L 30.589 2.995 L 32.932 4.193 L 33.505 4.12 L 35.823 2.432 L 36.708 2.177 L 38.135 2.833 L 42.458 5.755 L 45.323 6.156 L 45.958 6.521 L 46.49 8.031 L 45.906 10.365 L 45.13 11.469 L 43.094 13.146 L 42.318 14.448 L 43.469 16.682 L 43.531 17.667 L 43.208 18.464 L 42.135 19.156 L 41.135 19.281 L 40.62 18.818 L 40.042 17.271 L 39.167 16.083 L 38.229 15.646 L 37.667 15.974 L 37.828 16.859 L 37.219 17.938 L 37.141 18.766 L 38.375 20.656 L 38.625 21.615 L 37.984 24.865 L 39.01 25.297 L 39.349 25.922 L 38.672 27.818 L 37.75 28.302 L 37.193 27.984 L 36.781 27.188 L 36.245 27.047 L 30.281 29.422 L 28.589 29.344 L 28.094 29.812 L 28.495 30.599 L 30.771 32.151 L 31.833 33.229 L 31.896 34.385 L 31.406 35.391 L 29.958 36.583 L 26.938 38.219 L 26.427 38.026 L 24.089 35.917 L 23.615 35.979 L 23.458 36.448 L 23.771 37.635 L 25.141 39.786 L 24.854 40.714 L 24.036 41.396 L 26.057 42.917 L 26.729 44.401 L 28.125 45.635 L 28.625 47.073 L 29.312 47.641 L 32.5 48.792 L 38.531 50.057 L 41.109 50.141 L 42.484 50.5 L 44.964 50.214 L 45.401 50.839 L 44.854 51.854 L 43.323 52.792 L 42.047 53.099 L 41.682 52.964 L 41.234 51.682 L 39.891 52.443 L 39.146 52.552 L 36.74 51.693 L 31.156 51.125 L 28.188 50.172 L 25.828 48.615 L 23.182 45.885 L 21.661 44.698 L 18.573 40.292 L 18.396 39.823 L 18.562 39.406 L 19.438 39.094 L 20.375 39.359 L 22.484 40.688 L 22.969 40.729 L 22.969 40.531 L 21.401 38.255 L 20.281 34.094 L 18.526 32.427 L 17.75 30.161 L 17.24 29.417 L 16.786 29.375 L 15.333 30.167 L 13.036 32.495 L 12.74 33.156 L 12.729 34.333 L 14.099 36.76 L 14.198 37.911 L 13.708 38.417 L 12.885 38.656 L 11.729 38.312 L 11.245 37.677 L 10.745 35.828 L 9.531 34.562 L 8.625 32.906 L 7.177 27.016 L 6.333 25.344 L 5.448 24.312 L 4.776 20.672 L 4.411 19.891 L 2.12 17.688 L 1.438 16.542 L 1.438 14.323 Z M 44.516 40.276 L 43.219 40.667 L 42.464 40.479 L 41.708 39.87 L 40.208 39.729 L 40.036 37.401 L 39.448 36.312 L 38.698 35.594 L 37.818 37.297 L 36.969 37.719 L 36.37 37.656 L 36.365 36.625 L 37.396 35.531 L 37.766 34.682 L 37.094 32.021 L 37.255 31.026 L 37.771 30.198 L 39.333 30.021 L 40.052 30.417 L 40.448 31.63 L 40.24 32.823 L 41.745 33.427 L 43.234 34.75 L 43.661 36.536 L 44.802 37.896 L 45.234 38.859 Z M 29.188 42.792 L 29.891 42.167 L 32.438 41.245 L 35.443 39.229 L 36.203 38.896 L 37.208 38.948 L 38.115 39.573 L 38.391 40.135 L 37.932 41.49 L 38.01 42.552 L 39.047 42.948 L 42.839 43.068 L 43.469 43.562 L 43.453 44.099 L 42.646 44.859 L 42.292 45.604 L 42.182 46.484 L 42.479 48.344 L 41.745 48.797 L 38.74 48.854 L 38.208 48.271 L 37.786 47.177 L 37.672 45.203 L 36.083 46.953 L 35.333 47.318 L 33.396 47.5 L 31.208 47.062 L 30.406 46.354 L 29.729 45.146 Z"/>
</svg>
