<svg xmlns="http://www.w3.org/2000/svg"
  viewBox="0 0 49.333 51.5"
  fill="none"
>
  <path fill="#2F683E" fill-rule="evenodd" d="M 1.406 15.51 L 2.198 13.812 L 4.323 12.24 L 6.688 11.167 L 8.927 10.719 L 10.542 9.958 L 12.427 7.031 L 14.917 4.891 L 17.135 4.125 L 19.458 4.448 L 21.547 1.849 L 22.646 1.135 L 24.161 1.245 L 25.484 1.781 L 28.156 2.328 L 28.75 3.094 L 28.698 4.156 L 28.229 5.281 L 28.339 5.656 L 29.51 6.594 L 32.51 7.875 L 33.057 7.078 L 33.286 4.875 L 33.927 2.906 L 34.958 1.781 L 36.036 1.625 L 36.625 2.297 L 37.297 4.599 L 38.396 5.766 L 39.714 9.797 L 41.693 11.906 L 44.349 17.271 L 44.729 19.354 L 44.677 21.865 L 43.583 25.083 L 40.484 29.38 L 39.224 31.896 L 38.25 32.521 L 36.547 32.958 L 35.51 33.521 L 33.016 33.865 L 32.542 34.208 L 33.125 34.927 L 34.219 35.083 L 36.125 34.354 L 36.609 35.276 L 36.49 36.802 L 35.719 38.354 L 34.198 39.698 L 32.865 39.974 L 32.385 39.604 L 31.771 38.115 L 31.552 35.333 L 31.141 33.802 L 29.193 31.911 L 28.062 29.927 L 27.151 30.411 L 26.562 30.281 L 25.948 28.818 L 24.844 27.734 L 24.062 26.438 L 23.161 25.786 L 20.76 25.443 L 18.198 25.646 L 16.661 26.146 L 13.917 27.568 L 10.557 27.979 L 8.208 28.729 L 6.615 28.781 L 4.724 28.141 L 4.359 26.969 L 4.719 25.812 L 4.609 25.151 L 1.375 19.281 Z M 47.583 35.781 L 47.958 37.406 L 47.573 38.922 L 46.312 40.333 L 44.286 41.964 L 40.427 46.635 L 37.932 49.156 L 36.833 49.823 L 33.99 50.312 L 33.396 49.781 L 32.974 48.891 L 31.438 48.089 L 31.521 47.203 L 33.208 44.906 L 35.161 43.109 L 39.042 40.427 L 43.875 35.469 L 45.448 34.583 Z"/>
</svg>
