<svg xmlns="http://www.w3.org/2000/svg"
  viewBox="0 0 63.333 54.167"
  fill="none"
>
  <path fill="#2F683E" fill-rule="evenodd" d="M 1.531 46.755 L 1.25 45.188 L 1.438 42.594 L 3.609 37.083 L 4.594 35.948 L 6.828 35.995 L 11.854 37.646 L 13.073 37.63 L 13.818 37.13 L 14.052 35.708 L 13.839 35.078 L 10.74 31.583 L 10.604 31.031 L 10.984 30.172 L 12.531 29.625 L 16.625 29.906 L 19.104 29.312 L 22.797 27.156 L 27.307 25.589 L 28.312 24.625 L 28.443 23.521 L 28.99 22.333 L 31.411 21.005 L 31.479 20.135 L 31.229 19.828 L 27.885 19.995 L 27.083 19.573 L 26.521 17.292 L 26.646 14.214 L 27.531 12.943 L 30.63 11.109 L 32.651 9.115 L 33.948 6.87 L 35.057 5.573 L 36.125 3.266 L 37.823 2.198 L 41.26 1.26 L 46.948 1.75 L 48.385 2.344 L 49.073 3.562 L 49.167 4.651 L 48.193 6.938 L 48.021 9.094 L 48.417 10.417 L 49.802 12.453 L 49.917 13.521 L 49.651 14.51 L 49.031 15.375 L 46.578 16.969 L 47.583 17.797 L 48.021 19.344 L 48.807 20.583 L 51.786 22.953 L 52.484 24.521 L 53.901 26.177 L 54.635 28.115 L 57.323 30.125 L 61.062 31.068 L 61.948 32.062 L 61.823 33.844 L 60.708 36.312 L 59.359 37.49 L 58.453 39.604 L 57.562 40.115 L 56.406 40.036 L 55.625 39.479 L 54.781 38.354 L 54.062 38.021 L 53.615 38.182 L 52.5 39.365 L 51.443 41.224 L 51.49 42.354 L 52.474 43.323 L 52.443 44.526 L 51.74 45.281 L 50.5 45.911 L 47.083 46.453 L 46.708 46.776 L 47.005 48.443 L 46.583 49.625 L 45.208 51.016 L 44.167 51.359 L 42.896 50.568 L 42.286 48.859 L 40.891 47.349 L 39.677 44 L 36.615 42.25 L 34.615 40.458 L 33.672 40.083 L 35.089 42.37 L 38.078 44.422 L 39.188 45.656 L 39.135 46.839 L 38.458 48.542 L 37.609 49.703 L 36.24 50.307 L 36.146 51.844 L 35.76 52.604 L 35.401 52.74 L 33.542 51.708 L 32.839 50.589 L 32.885 50.052 L 33.536 49.156 L 35.198 48.719 L 35.229 48.115 L 34.792 47.115 L 33.714 46.193 L 31.714 45.141 L 29.229 42.719 L 27.714 41.698 L 27.073 41.656 L 25.812 42.104 L 22.906 42.073 L 21.214 42.349 L 18.922 44.198 L 15.427 45.833 L 14.406 47.083 L 12.875 48.276 L 10.469 49.281 L 9.125 49.526 L 6.344 49.312 L 2.828 48.016 L 1.812 47.281 Z M 16.656 12.896 L 17.979 13.391 L 18.677 14.656 L 18.828 16.208 L 18.302 19.203 L 18.88 20.901 L 19.099 22.729 L 20.427 24.927 L 20.531 25.49 L 20.208 26.677 L 19.396 27.833 L 18.333 28.109 L 13.146 28.094 L 9.771 27.625 L 10.146 26.781 L 11.854 25.422 L 11.417 24.359 L 11.651 23.302 L 14.219 21.833 L 14.281 20.615 L 13.526 18.578 L 13.979 15.094 L 15.016 13.318 L 15.76 12.938 Z M 11.432 17.479 L 11.854 18.26 L 11.943 19.495 L 11.385 21.167 L 10.297 22.979 L 9.682 23.604 L 8.312 24.292 L 7.146 24.526 L 6.01 24.219 L 5.625 23.594 L 5.583 22.714 L 7.073 20.344 L 7.656 18.688 L 8.583 17.833 L 9.839 17.276 L 10.781 17.156 Z M 27.25 43 L 28.562 43.625 L 29.917 45.49 L 29.24 47.885 L 28.146 48.979 L 26.99 48.854 L 26.464 47.854 L 26.484 44.219 L 26.661 43.573 Z"/>
</svg>
