<svg xmlns="http://www.w3.org/2000/svg"
  viewBox="0 0 56.667 73.75"
  fill="none"
>
  <path fill="#2F683E" fill-rule="evenodd" d="M 33.182 72.458 L 31.016 72.51 L 29.615 71.917 L 27.375 69.885 L 26.375 67.229 L 26.188 65.714 L 26.484 63.37 L 26.073 61.5 L 26.073 58.625 L 28.682 46.25 L 28.885 44.188 L 28.193 42.651 L 24.885 39.312 L 21.578 33.333 L 21.719 30.208 L 22.328 28.224 L 23.859 25.677 L 23.76 23.74 L 22.885 23.323 L 21.557 23.422 L 20.417 23.083 L 19.396 22.292 L 16.557 19.031 L 14.396 18.135 L 12.99 17.052 L 10.365 16.484 L 8.677 15.802 L 5.927 13.875 L 5.333 12.469 L 5.115 10.177 L 4.776 10.036 L 3.578 10.375 L 2.885 10.083 L 1.901 8.224 L 1.219 3.328 L 1.521 2.083 L 2.172 1.396 L 4.021 1.193 L 5.589 1.938 L 7.964 2.51 L 9.141 3.307 L 10.167 4.964 L 12.031 5.885 L 12.464 7.109 L 12.411 11.818 L 12.896 12.948 L 13.479 13.562 L 14.479 13.583 L 17.719 11.547 L 18.786 11.703 L 19.219 12.26 L 19.406 13.094 L 18.885 15.125 L 19.115 15.5 L 20.891 16.406 L 21.297 17.094 L 21.938 20.12 L 22.479 20.734 L 23.25 21.062 L 25.177 21.021 L 27.521 20.021 L 29.234 19.729 L 33.396 20.771 L 36.099 21.146 L 40.068 23.891 L 42.651 25.089 L 45.448 28.323 L 47.167 29.667 L 49.052 30.552 L 52.385 31.573 L 54.125 32.75 L 55.271 34.115 L 55.5 34.812 L 55.323 36.26 L 52.797 40.146 L 52.339 42.047 L 51.167 44.594 L 49.651 46.109 L 45.729 48.266 L 43.948 51.224 L 41.417 54.266 L 40.26 55.281 L 38.911 55.802 L 37.604 58.062 L 34.823 59.141 L 33.812 60.458 L 32.542 63.359 L 32.521 65.745 L 31.948 68.146 L 32.552 69.51 L 33.927 71.37 L 33.906 72.062 Z M 32.458 14.76 L 31.396 15.635 L 29.885 16.073 L 28.667 15.76 L 27.167 14.76 L 26.865 14.948 L 26.391 16.12 L 25.656 16.229 L 25.031 15.604 L 24.927 14.021 L 24.521 13.458 L 23.724 13.005 L 21.411 12.38 L 21.151 11.562 L 22.214 10.469 L 22.792 10.25 L 23.516 10.37 L 27.224 11.922 L 29.266 13.661 L 31.724 14.135 Z"/>
</svg>
