<svg xmlns="http://www.w3.org/2000/svg"
  viewBox="0 0 58.583 46.083"
  fill="none"
>
  <path fill="#2F683E" fill-rule="evenodd" d="M 2.01 3.281 L 2.479 2.729 L 3.26 2.448 L 8.198 3.51 L 10.76 3.76 L 11.51 3.573 L 13.125 2.479 L 16.557 3.984 L 22.026 5.005 L 25.156 6.448 L 25.51 6.219 L 25.448 5.531 L 24.661 3.448 L 24.562 2.198 L 25.453 1.417 L 27.677 1.12 L 29.625 1.521 L 32.677 2.943 L 36.708 2.87 L 38 3.068 L 46.333 5.526 L 47.479 6.807 L 48.812 10.479 L 49.698 11.917 L 50.823 12.891 L 53.974 14.807 L 55.604 16.875 L 56.896 19.453 L 57.021 21.01 L 56.01 21.698 L 51.297 22.047 L 47.75 23.245 L 45.719 22.781 L 43.635 21.771 L 43.031 21.688 L 42.719 21.885 L 42.698 22.365 L 43.188 23.214 L 46.979 25.792 L 48.333 25.885 L 51.51 25.542 L 53.354 25.995 L 54.01 26.635 L 54.193 27.562 L 53.557 29.521 L 51.76 32.302 L 49.271 35.062 L 45.406 38.781 L 41.839 41.521 L 34.156 44.594 L 31.25 44.969 L 29.75 44.651 L 28.635 43.333 L 27.385 39.182 L 25.255 34.385 L 23.573 32.094 L 21.354 29.859 L 20.521 27.74 L 20.656 25.938 L 21.401 23.917 L 22.958 22.146 L 25.583 20.005 L 26.292 18.969 L 26.271 18.578 L 25.417 18.062 L 23.724 17.917 L 19.161 18.859 L 17.396 18.969 L 15.505 18.432 L 13.427 17.125 L 11.583 16.375 L 7.333 16.938 L 5.214 16.792 L 3.948 16.396 L 2.854 14.74 L 1.51 10.922 L 1.302 7.865 Z"/>
</svg>
