<svg xmlns="http://www.w3.org/2000/svg"
  viewBox="0 0 60.083 64.833"
  fill="none"
>
  <path fill="#2F683E" fill-rule="evenodd" d="M 57.734 60.844 L 54.594 61.771 L 52.594 63.052 L 51.312 63.469 L 48.88 62.807 L 42.698 62.083 L 41.167 61.271 L 37.901 58.427 L 34.703 57.281 L 33.344 56.536 L 29.656 55.943 L 26.094 54.177 L 24.984 53.229 L 24.427 51.198 L 23.302 49.51 L 22.562 49.089 L 21.568 49.885 L 20.344 49.135 L 18.312 46.042 L 16.682 41.922 L 14.844 39.12 L 14.344 37.354 L 14.401 34.797 L 15.562 28.807 L 15.193 27.224 L 15.365 26.115 L 15.188 24.578 L 13.885 20.729 L 12.823 19.062 L 11.307 18.109 L 9.901 18.198 L 8.865 17.953 L 7.99 18.688 L 6.495 18.953 L 3.729 18.573 L 1.802 17.859 L 1.417 17.417 L 1.651 16.573 L 4.422 16.427 L 4.807 16.198 L 4.771 12.88 L 3.901 11.943 L 3.906 11.323 L 4.833 11.016 L 5.755 11.594 L 6.615 11.75 L 7.193 11.266 L 8.318 9.312 L 11.76 8.115 L 13.99 7.995 L 15.49 8.385 L 18.688 11.167 L 20.599 12.479 L 24.448 13.51 L 25.151 11.953 L 26.786 10.729 L 27.953 9.203 L 29.339 9.01 L 30.807 9.51 L 31.609 9.266 L 32.969 10.062 L 33.188 9.797 L 32.833 8.859 L 33.062 8.188 L 34.573 7.818 L 37.703 5 L 40.276 3.823 L 42.885 2.188 L 45.073 1.573 L 48.635 1.26 L 52.792 2.63 L 54.281 4.349 L 56.318 6.031 L 57.089 7.526 L 57.974 8.01 L 58.74 9.042 L 58.526 10.609 L 56.74 15.479 L 57.042 18.958 L 56.234 19.286 L 54.573 19.385 L 53.661 19.224 L 51.917 18.354 L 49.964 16.37 L 49.193 14.583 L 48.12 14.016 L 47.396 12.547 L 45.677 10.953 L 44.26 10.5 L 42.26 10.312 L 41.141 9.812 L 40.5 10.75 L 41.135 11.828 L 45 14.203 L 47.031 16.047 L 47.344 16.807 L 47.375 18.594 L 46.99 19.906 L 46.052 20.661 L 45.958 21.271 L 46.406 21.359 L 47.229 21.01 L 48.458 21.271 L 51.604 23.495 L 53.224 24.141 L 54.307 26.073 L 56.573 27.354 L 57.047 27.932 L 57.25 28.76 L 56.516 29.208 L 53.594 29.964 L 53.073 31.552 L 51.458 33.062 L 50.656 33.349 L 49.24 33.234 L 48.521 33.714 L 48.214 34.99 L 47.135 36.052 L 46.49 37.151 L 46.26 38.771 L 45.604 40.427 L 43.734 42.734 L 43.521 44.365 L 44.125 47.125 L 43.609 48.109 L 42.385 48.182 L 40.615 45.943 L 39.115 45.052 L 34.115 45.62 L 33.125 46.031 L 32.349 46.87 L 31.615 49.104 L 31.568 50.589 L 32.427 52.448 L 33.49 52.844 L 34.849 52.604 L 36.557 50.979 L 37.854 50.76 L 38.833 50.948 L 39.266 51.984 L 38.896 54.281 L 39.229 54.677 L 41.474 55.25 L 42.458 55.812 L 42.99 57.016 L 43.135 59.104 L 43.63 59.615 L 46.661 59.76 L 47.615 59.396 L 49.49 57.885 L 51.286 57.573 L 53.979 57.677 L 56.193 58.073 L 57.469 58.719 L 58.125 59.969 Z"/>
</svg>
